<?xml version="1.0" encoding="UTF-8"?>
<svg id="Layer_2" data-name="Layer 2" xmlns="http://www.w3.org/2000/svg" viewBox="0 0 150.09 26.54">
  <defs>
    <style>
      .cls-1 {
        fill: #333;
      }

      .cls-2 {
        fill: #168754;
      }
    </style>
  </defs>
  <g id="Layer_1-2" data-name="Layer 1">
    <g>
      <g>
        <path class="cls-1" d="m12.54,16.46h5.58c-.02,1.04-.24,1.95-.69,2.74-.47.83-1.15,1.47-2.05,1.92s-1.96.68-3.2.68c-1.37,0-2.56-.34-3.58-1.01s-1.8-1.65-2.35-2.93-.83-2.82-.83-4.61.28-3.31.85-4.59,1.35-2.25,2.35-2.92,2.17-1,3.5-1c.95,0,1.79.16,2.52.47s1.35.77,1.86,1.36.88,1.29,1.11,2.11h5.46c-.24-1.7-.86-3.2-1.86-4.51s-2.3-2.33-3.9-3.07-3.35-1.11-5.28-1.11c-2.28,0-4.33.53-6.15,1.6S2.63,4.19,1.58,6.2s-1.58,4.37-1.58,7.09.51,5.03,1.52,7.03,2.44,3.53,4.28,4.61,3.96,1.61,6.36,1.61c2.16,0,4.09-.44,5.77-1.32s3-2.14,3.95-3.79,1.43-3.58,1.43-5.81v-3.25h-10.77v4.08Z"/>
        <path class="cls-1" d="m33.94.36l-8.92,25.83h5.73l1.95-5.96h9.37l1.94,5.96h5.76L40.83.36h-6.88Zm.12,15.68l3.21-9.85h.21l3.21,9.85h-6.63Z"/>
        <polygon class="cls-1" points="73.95 .36 66.78 17.85 66.47 17.85 59.29 .36 52.69 .36 52.69 26.18 57.88 26.18 57.88 9.22 58.09 9.22 64.81 26.06 68.4 26.06 75.14 9.26 75.36 9.26 75.36 26.18 80.56 26.18 80.56 .36 73.95 .36"/>
      </g>
      <g>
        <path class="cls-2" d="m95.22,18.37c-.01,1.26-.29,2.21-.82,2.86s-1.32.97-2.35.97c-.63,0-1.18-.13-1.66-.38s-.85-.63-1.13-1.11-.43-1.06-.44-1.73h-5.35c0,1.64.36,3.03,1.09,4.16s1.72,1.99,2.97,2.55,2.67.85,4.25.85c1.72,0,3.25-.33,4.58-1s2.36-1.62,3.09-2.85,1.1-2.68,1.1-4.32V.36h-5.33v18.01Z"/>
        <path class="cls-2" d="m112.42.36l-8.92,25.83h5.73l1.95-5.96h9.37l1.94,5.96h5.76L119.3.36h-6.88Zm.12,15.68l3.21-9.85h.21l3.21,9.85h-6.63Z"/>
        <path class="cls-2" d="m148.04,13.89c-1.35-1.22-3.25-2.1-5.7-2.65l-2.32-.55c-1.3-.32-2.31-.73-3.04-1.21s-1.09-1.17-1.08-2.03c0-.57.17-1.08.5-1.52s.82-.79,1.45-1.04,1.39-.37,2.26-.37,1.66.12,2.3.37,1.14.62,1.51,1.11.58,1.08.65,1.77h5.15c-.02-1.52-.43-2.87-1.23-4.04s-1.91-2.08-3.35-2.73-3.1-.97-4.98-.97-3.54.33-5.02.98-2.64,1.57-3.48,2.75-1.26,2.53-1.26,4.07c0,1.84.6,3.34,1.81,4.49s2.94,2,5.2,2.56l2.84.68c1,.25,1.82.51,2.45.79s1.12.62,1.45,1.02.5.88.5,1.45c0,.63-.19,1.19-.57,1.69s-.92.88-1.62,1.15-1.52.41-2.44.41-1.8-.15-2.55-.45-1.34-.74-1.78-1.32-.7-1.3-.77-2.14h-5.21c.06,1.82.51,3.36,1.36,4.61s2.04,2.2,3.58,2.84,3.35.96,5.43.96,3.87-.32,5.37-.95,2.65-1.53,3.44-2.69,1.19-2.53,1.19-4.08c-.01-2.07-.69-3.71-2.04-4.93Z"/>
      </g>
    </g>
  </g>
</svg>